<svg width="20" height="20" viewBox="0 0 20 20" fill="none" xmlns="http://www.w3.org/2000/svg">
<path fill-rule="evenodd" clip-rule="evenodd" d="M14.5999 8C14.5999 11.3137 11.9136 14 8.59985 14C5.28615 14 2.59985 11.3137 2.59985 8C2.59985 4.68629 5.28615 2 8.59985 2C11.9136 2 14.5999 4.68629 14.5999 8ZM13.44 14.3702C12.0961 15.3929 10.4189 16 8.59985 16C4.18158 16 0.599854 12.4183 0.599854 8C0.599854 3.58172 4.18158 0 8.59985 0C13.0181 0 16.5999 3.58172 16.5999 8C16.5999 9.87602 15.9541 11.6012 14.8728 12.9654L19.3681 18.3598C19.7216 18.7841 19.6643 19.4147 19.24 19.7682C18.8158 20.1218 18.1852 20.0645 17.8316 19.6402L13.44 14.3702Z" fill="#9E9E9E"/>
</svg>
